<?xml version="1.0" encoding="utf-8"?>
<!-- Generator: Adobe Illustrator 23.1.0, SVG Export Plug-In . SVG Version: 6.00 Build 0)  -->
<svg version="1.1" id="Layer_1" xmlns="http://www.w3.org/2000/svg" xmlns:xlink="http://www.w3.org/1999/xlink" x="0px" y="0px"
	 viewBox="0 0 47 69.1" style="enable-background:new 0 0 47 69.1;" xml:space="preserve">
<style type="text/css">
	.st0{fill:#7F0101;}
</style>
<path class="st0" d="M23,12c0-6.6,5.4-12,12-12c6.6,0,12,5.4,12,12c0,6.6-5.4,12-12,12C28.4,24,23,18.6,23,12z M39.1,5.1
	C37.9,4.4,36.5,4,35,4c-4.4,0-8,3.6-8,8c0,1.5,0.4,2.9,1.1,4.1L39.1,5.1z M41.9,7.9l-11,11c1.2,0.7,2.6,1.1,4.1,1.1c4.4,0,8-3.6,8-8
	C43,10.5,42.6,9.1,41.9,7.9z M36,28v36c0,2.2-1.8,4-4,4H4c-2.2,0-4-1.8-4-4V10c0-2.2,1.8-4,4-4h16.2C19.4,7.9,19,9.9,19,12
	c0,8.8,7.2,16,16,16C35.3,28,35.7,28,36,28z M8.5,45c1.4,0,2.5-1.1,2.5-2.5S9.9,40,8.5,40S6,41.1,6,42.5S7.1,45,8.5,45z"/>
</svg>
