<?xml version="1.0" encoding="utf-8"?>
<!-- Generator: Adobe Illustrator 23.1.0, SVG Export Plug-In . SVG Version: 6.00 Build 0)  -->
<svg version="1.1" id="Layer_1" xmlns="http://www.w3.org/2000/svg" xmlns:xlink="http://www.w3.org/1999/xlink" x="0px" y="0px"
	 viewBox="0 0 243 243" style="enable-background:new 0 0 243 243;" xml:space="preserve">
<style type="text/css">
	.st0{fill:#226015;}
</style>
<g>
	<path class="st0" d="M15,121.5C15,62.8,62.8,15,121.5,15C180.2,15,228,62.8,228,121.5c0,58.7-47.8,106.5-106.5,106.5v15
		c67,0,121.5-54.5,121.5-121.5S188.5,0,121.5,0S0,54.5,0,121.5H15z"/>
</g>
<path class="st0" d="M186.4,87.5L124.8,149l-8,8.1l-8.1-8.1l-30.7-30.7l14.1-14.1l25.6,25.6L175.7,72c-16.3-16-34.6-24-54.7-24
	c-40.9,0-74,33.1-74,74s33.1,74,74,74s74-33.1,74-74C195,109.5,191.9,97.8,186.4,87.5z"/>
</svg>
